<?xml version="1.0" encoding="utf-8"?>
<!-- Generator: Adobe Illustrator 24.0.3, SVG Export Plug-In . SVG Version: 6.00 Build 0)  -->
<svg version="1.0" id="Layer_1" xmlns="http://www.w3.org/2000/svg" xmlns:xlink="http://www.w3.org/1999/xlink" x="0px" y="0px"
	 viewBox="0 0 300 80.3" style="enable-background:new 0 0 300 80.3;" xml:space="preserve">
<style type="text/css">
	.st0{fill:#25282A;}
	.st1{fill:#CA2F35;}
	.st2{fill:#FFFFFF;}
	.st3{fill:#D13239;}
</style>
<g>
	<path class="st0" d="M3.1,25.7c0,2.9,0.5,5,1.4,6.3c1,1.3,2.1,2,3.5,2c1.4,0,2.6-0.6,3.6-1.9c1-1.3,1.5-3.4,1.5-6.2
		c0-2.8-0.5-4.8-1.5-6.1c-1-1.3-2.2-2-3.7-2c-1.3,0-2.4,0.7-3.4,2C3.6,21.1,3.1,23.1,3.1,25.7 M0.6,38.9l3,0.5
		c0.1,1.2,0.6,2,1.2,2.6c0.7,0.6,1.7,0.9,2.9,0.9c1.3,0,2.4-0.3,3.2-1c0.8-0.6,1.3-1.6,1.6-2.9c0.2-0.8,0.3-2.4,0.3-4.9
		c-0.7,1-1.4,1.7-2.3,2.2c-0.8,0.5-1.7,0.7-2.8,0.7c-2.2,0-4-0.9-5.4-2.7C0.8,32.3,0,29.4,0,25.9c0-2.4,0.4-4.4,1.1-6.2
		c0.7-1.8,1.7-3.1,2.8-3.9c1.2-0.8,2.5-1.2,3.9-1.2c1.1,0,2,0.3,2.9,0.8c0.9,0.5,1.7,1.3,2.3,2.4v-2.7h2.8v19c0,3.4-0.3,5.8-0.8,7.2
		c-0.6,1.4-1.5,2.6-2.7,3.4S9.6,46,7.8,46c-2.3,0-4.1-0.6-5.4-1.9C1.2,42.9,0.6,41.1,0.6,38.9"/>
	<path class="st0" d="M34,37.1v-3.2c-0.7,1.2-1.5,2.2-2.5,2.8c-1,0.6-2,0.9-3.2,0.9c-1.4,0-2.6-0.4-3.6-1.2c-1-0.8-1.7-1.7-2-2.9
		c-0.3-1.2-0.5-2.8-0.5-4.8V15.1h3v12.2c0,2.3,0.1,3.8,0.3,4.5c0.2,0.8,0.6,1.4,1.3,1.8c0.6,0.5,1.3,0.7,2.1,0.7
		c1.5,0,2.7-0.6,3.6-1.8c0.8-1,1.2-2.9,1.2-5.7V15.1h3.1v22H34z"/>
	<path class="st0" d="M54.8,26c-1.1,0.6-2.8,1.1-5,1.5c-1.3,0.2-2.2,0.5-2.7,0.7c-0.5,0.3-0.9,0.7-1.2,1.2c-0.3,0.5-0.4,1.1-0.4,1.8
		c0,1,0.3,1.9,1,2.5c0.6,0.6,1.5,0.9,2.7,0.9c1.1,0,2.1-0.3,3-0.8c0.9-0.6,1.6-1.3,2-2.3c0.4-0.9,0.7-2.3,0.7-4.1
		C54.8,27.4,54.8,26,54.8,26z M55,34.4c-1,1.1-2.1,1.9-3.2,2.4c-1.1,0.5-2.3,0.8-3.4,0.8c-1.9,0-3.4-0.6-4.5-1.7
		c-1.1-1.1-1.7-2.6-1.7-4.5c0-1.3,0.3-2.4,0.8-3.4c0.5-1,1.2-1.7,2.2-2.3c0.9-0.5,2.3-1,4.1-1.2c2.5-0.4,4.3-0.8,5.5-1.4l0-1
		c0-1.5-0.3-2.5-0.8-3.1c-0.8-0.9-1.9-1.3-3.5-1.3c-1.4,0-2.5,0.3-3.2,0.9c-0.7,0.6-1.2,1.7-1.6,3.3l-3-0.6c0.4-2.3,1.3-4.1,2.6-5.1
		c1.3-1.1,3.2-1.6,5.6-1.6c1.9,0,3.4,0.4,4.5,1.1c1.1,0.7,1.8,1.6,2,2.6c0.3,1,0.4,2.6,0.4,4.6v5c0,3.5,0.1,5.7,0.2,6.6
		c0.1,0.9,0.4,1.8,0.7,2.6h-3.2C55.3,36.3,55.1,35.4,55,34.4"/>
	<path class="st0" d="M64.3,37.1v-22H67v3.3c0.7-1.5,1.3-2.6,1.9-3.1c0.6-0.5,1.2-0.8,2-0.8c1,0,2.1,0.4,3.1,1.2L73,19.3
		c-0.8-0.5-1.5-0.8-2.2-0.8c-0.6,0-1.2,0.2-1.8,0.7c-0.5,0.5-0.9,1.1-1.1,1.9c-0.4,1.4-0.6,2.9-0.6,4.5v11.5H64.3z"/>
	<path class="st0" d="M89.1,26c-1.1,0.6-2.8,1.1-5,1.5c-1.3,0.2-2.2,0.5-2.7,0.7c-0.5,0.3-0.9,0.7-1.2,1.2c-0.3,0.5-0.4,1.1-0.4,1.8
		c0,1,0.3,1.9,1,2.5c0.7,0.6,1.6,0.9,2.7,0.9c1.1,0,2.1-0.3,3-0.8c0.9-0.6,1.6-1.3,2-2.3c0.4-0.9,0.7-2.3,0.7-4.1V26z M89.3,34.4
		c-1,1.1-2.1,1.9-3.2,2.4c-1.1,0.5-2.2,0.8-3.4,0.8c-1.9,0-3.4-0.6-4.5-1.7c-1.1-1.1-1.7-2.6-1.7-4.5c0-1.3,0.2-2.4,0.8-3.4
		c0.5-1,1.3-1.7,2.2-2.3c0.9-0.5,2.3-1,4.1-1.2c2.5-0.4,4.3-0.8,5.5-1.4l0-1c0-1.5-0.3-2.5-0.8-3.1c-0.8-0.9-1.9-1.3-3.5-1.3
		c-1.4,0-2.5,0.3-3.2,0.9c-0.7,0.6-1.2,1.7-1.5,3.3l-3-0.6c0.4-2.3,1.3-4.1,2.6-5.1c1.3-1.1,3.2-1.6,5.6-1.6c1.9,0,3.4,0.4,4.4,1.1
		c1.1,0.7,1.8,1.6,2,2.6c0.3,1,0.4,2.6,0.4,4.6v5c0,3.5,0.1,5.7,0.2,6.6c0.1,0.9,0.4,1.8,0.7,2.6h-3.2
		C89.6,36.3,89.4,35.4,89.3,34.4"/>
	<path class="st0" d="M98.6,37.1v-22h2.8v3.1c0.7-1.2,1.5-2.1,2.4-2.7c1-0.6,2-0.9,3.3-0.9c1,0,1.8,0.2,2.7,0.6
		c0.8,0.4,1.5,0.9,2,1.5c0.5,0.6,0.9,1.4,1.1,2.4c0.2,1,0.4,2.5,0.4,4.5v13.5h-3V23.7c0-1.6-0.1-2.8-0.4-3.5
		c-0.3-0.7-0.7-1.3-1.3-1.7c-0.6-0.4-1.3-0.6-2-0.6c-1.5,0-2.6,0.5-3.5,1.6c-0.9,1.1-1.3,3-1.3,5.6v12L98.6,37.1L98.6,37.1z"/>
	<path class="st0" d="M126.3,33.7l0.4,3.3c-0.8,0.2-1.6,0.3-2.3,0.3c-1.1,0-1.9-0.2-2.6-0.6c-0.7-0.4-1.1-1-1.3-1.7
		c-0.2-0.7-0.4-2.2-0.4-4.4l0.1-12.6h-2.3v-2.9h2.3l-0.1-5.4l3-2.3l0,7.7h3V18h-3l0,12.8c0,1.2,0.1,1.9,0.3,2.3
		c0.3,0.5,0.8,0.7,1.5,0.7C125.3,33.9,125.8,33.8,126.3,33.7"/>
	<path class="st0" d="M133.2,23.9h10.1c-0.1-1.9-0.5-3.3-1.2-4.2c-1-1.4-2.2-2-3.8-2c-1.4,0-2.5,0.6-3.5,1.7
		C133.9,20.5,133.3,22,133.2,23.9 M143.2,29.9l3.1,0.5c-0.5,2.3-1.5,4.1-2.9,5.3c-1.4,1.2-3.1,1.8-5.1,1.8c-2.6,0-4.6-1-6.2-2.9
		c-1.6-1.9-2.4-4.7-2.4-8.4c0-3.8,0.8-6.7,2.4-8.7c1.6-2,3.6-3,6.1-3c2.3,0,4.3,1,5.8,2.9c1.6,2,2.3,4.8,2.3,8.5l0,1H133
		c0.1,2.5,0.7,4.3,1.7,5.6c1,1.3,2.3,1.9,3.7,1.9C140.8,34.5,142.4,33,143.2,29.9"/>
	<path class="st0" d="M154.2,23.9h10.1c-0.1-1.9-0.5-3.3-1.2-4.2c-1-1.4-2.2-2-3.7-2c-1.4,0-2.5,0.6-3.5,1.7
		C154.9,20.5,154.3,22,154.2,23.9 M164.3,29.9l3.1,0.5c-0.5,2.3-1.5,4.1-2.8,5.3c-1.4,1.2-3.1,1.8-5.1,1.8c-2.5,0-4.6-1-6.2-2.9
		c-1.6-1.9-2.4-4.7-2.4-8.4c0-3.8,0.8-6.7,2.4-8.7c1.6-2,3.6-3,6.1-3c2.3,0,4.3,1,5.8,2.9c1.6,2,2.3,4.8,2.3,8.5l0,1h-13.5
		c0.1,2.5,0.7,4.3,1.7,5.6c1,1.3,2.3,1.9,3.7,1.9C161.8,34.5,163.4,33,164.3,29.9"/>
	<path class="st0" d="M175,26.1c0,2.8,0.5,4.9,1.5,6.3c1,1.4,2.1,2.1,3.4,2.1c1.3,0,2.4-0.7,3.4-2c1-1.3,1.4-3.3,1.4-6
		c0-3.1-0.5-5.3-1.4-6.7c-1-1.4-2.1-2.1-3.6-2.1c-1.3,0-2.4,0.7-3.3,2C175.5,21.1,175,23.2,175,26.1 M184.7,37.1v-2.8
		c-0.6,1.1-1.3,1.9-2.1,2.4c-0.9,0.6-1.8,0.8-2.8,0.8c-2.1,0-4-1-5.5-3c-1.6-2-2.3-4.8-2.3-8.5c0-2.5,0.3-4.6,1-6.3
		c0.7-1.7,1.6-3,2.8-3.9c1.2-0.8,2.4-1.3,3.8-1.3c1,0,1.9,0.3,2.8,0.8c0.9,0.5,1.6,1.3,2.1,2.2V6.7h3.1v30.4L184.7,37.1L184.7,37.1z
		"/>
</g>
<polygon class="st1" points="194.9,0 194.9,47.7 173.8,47.7 237.3,80.3 238.2,80.3 300,47.7 280.6,47.7 280.6,0 "/>
<path class="st2" d="M203.5,20.1h7c1.5,0,2.7-0.2,3.5-0.6c0.8-0.4,1.4-1,1.9-1.8c0.5-0.8,0.7-1.7,0.7-2.8c0-1.5-0.4-2.7-1.3-3.6
	c-0.9-0.9-2.2-1.3-4-1.3h-7.8L203.5,20.1L203.5,20.1z M200.2,37.1V6.7h11c2.3,0,4,0.3,5.1,0.8c1.1,0.6,2,1.5,2.7,2.8
	s1.1,2.8,1.1,4.6c0,2.3-0.6,4.1-1.8,5.6c-1.2,1.4-2.9,2.3-5.2,2.7c0.9,0.6,1.7,1.1,2.2,1.7c1,1.2,1.8,2.4,2.6,3.9l4.3,8.3H218
	l-3.3-6.3c-1.3-2.5-2.2-4.1-2.9-5c-0.6-0.9-1.3-1.4-1.9-1.7c-0.6-0.3-1.5-0.4-2.6-0.4h-3.8v13.5L200.2,37.1L200.2,37.1z"/>
<path class="st2" d="M238.1,26c-1.1,0.6-2.8,1.1-5,1.5c-1.3,0.2-2.2,0.5-2.7,0.7c-0.5,0.3-0.9,0.7-1.2,1.2c-0.3,0.5-0.4,1.1-0.4,1.8
	c0,1,0.3,1.9,1,2.5c0.7,0.6,1.6,0.9,2.7,0.9c1.1,0,2.1-0.3,3-0.8c0.9-0.6,1.6-1.3,2-2.3c0.4-0.9,0.7-2.3,0.7-4.1L238.1,26L238.1,26z
	 M238.4,34.4c-1,1.1-2.1,1.9-3.2,2.4c-1.1,0.5-2.2,0.8-3.4,0.8c-1.9,0-3.4-0.6-4.5-1.7c-1.1-1.1-1.7-2.6-1.7-4.5
	c0-1.3,0.3-2.4,0.8-3.4c0.5-1,1.2-1.7,2.1-2.3c0.9-0.5,2.3-1,4.2-1.2c2.5-0.4,4.3-0.8,5.5-1.4l0-1c0-1.5-0.3-2.5-0.8-3.1
	c-0.8-0.9-1.9-1.3-3.5-1.3c-1.4,0-2.5,0.3-3.2,0.9c-0.7,0.6-1.2,1.7-1.5,3.3l-3-0.6c0.4-2.3,1.3-4.1,2.6-5.1
	c1.3-1.1,3.2-1.6,5.6-1.6c1.9,0,3.4,0.4,4.4,1.1c1.1,0.7,1.8,1.6,2,2.6c0.3,1,0.4,2.6,0.4,4.6v5c0,3.5,0.1,5.7,0.2,6.6
	c0.1,0.9,0.4,1.8,0.8,2.6h-3.2C238.7,36.3,238.5,35.4,238.4,34.4"/>
<path class="st2" d="M254.4,33.7l0.4,3.3c-0.8,0.2-1.6,0.3-2.3,0.3c-1.1,0-1.9-0.2-2.6-0.6c-0.6-0.4-1.1-1-1.3-1.7
	c-0.2-0.7-0.4-2.2-0.4-4.4l0.1-12.6H246v-2.9h2.3l-0.1-5.4l3-2.3l0.1,7.7h3V18h-3l-0.1,12.8c0,1.2,0.1,1.9,0.3,2.3
	c0.3,0.5,0.7,0.7,1.5,0.7C253.4,33.9,253.8,33.8,254.4,33.7"/>
<path class="st2" d="M261.3,23.9h10.1c-0.1-1.9-0.5-3.3-1.2-4.2c-1-1.4-2.2-2-3.8-2c-1.4,0-2.5,0.6-3.5,1.7
	C261.9,20.5,261.4,22,261.3,23.9 M271.3,29.9l3.1,0.5c-0.5,2.3-1.5,4.1-2.8,5.3c-1.4,1.2-3.1,1.8-5.1,1.8c-2.6,0-4.6-1-6.2-2.9
	c-1.6-1.9-2.4-4.7-2.4-8.4c0-3.8,0.8-6.7,2.4-8.7c1.6-2,3.6-3,6.1-3c2.3,0,4.3,1,5.9,2.9c1.6,2,2.3,4.8,2.3,8.5l0,1h-13.5
	c0.1,2.5,0.7,4.3,1.7,5.6c1,1.3,2.3,1.9,3.7,1.9C268.8,34.5,270.4,33,271.3,29.9"/>
<g>
	<path class="st3" d="M290.5,45.6c-2.9,0-5.3-2.2-5.3-5c0-2.8,2.4-5,5.3-5c3,0,5.4,2.2,5.4,5C295.9,43.4,293.5,45.6,290.5,45.6
		L290.5,45.6z M290.5,36.8c-2.3,0-4.2,1.7-4.2,3.8c0,2.1,1.9,3.8,4.2,3.8c2.3,0,4.2-1.7,4.2-3.8C294.7,38.5,292.8,36.8,290.5,36.8
		L290.5,36.8z"/>
</g>
<path class="st3" d="M289.7,40.5h0.7c0.8,0,1.3-0.4,1.3-1.1c0-0.7-0.5-1-1.3-1c-0.4,0-0.6,0-0.7,0.1L289.7,40.5L289.7,40.5z
	 M289,37.9c0.4-0.1,0.9-0.1,1.4-0.1c0.8,0,1.3,0.2,1.6,0.5c0.3,0.2,0.4,0.6,0.4,1.1c0,0.7-0.5,1.2-1.1,1.4v0
	c0.4,0.1,0.7,0.5,0.8,1.1c0.2,0.8,0.3,1.3,0.4,1.5h-0.8c-0.1-0.2-0.2-0.6-0.4-1.3c-0.2-0.8-0.5-1.1-1.1-1.1h-0.7v2.4H289L289,37.9
	L289,37.9z"/>
</svg>
